Coordinates
version=1
nRows=14
nColumns=24
inDegrees=yes

Units are S.I. units (second, meters, Newtons, ...)
Angles are in degrees.

endheader
time	pelvis_tilt	pelvis_list	pelvis_rotation	pelvis_tx	pelvis_ty	pelvis_tz	hip_flexion_r	hip_adduction_r	hip_rotation_r	knee_angle_r	ankle_angle_r	subtalar_angle_r	mtp_angle_r	hip_flexion_l	hip_adduction_l	hip_rotation_l	knee_angle_l	ankle_angle_l	subtalar_angle_l	mtp_angle_l	lumbar_extension	lumbar_bending	lumbar_rotation
      5.03500000	    -11.10501025	      0.14296351	     -6.55600419	      0.17397510	     -0.00447723	      0.03395208	      3.04953275	      5.01856785	      5.19241330	     -4.33970201	      0.66383342	      2.91027200	     10.63130306	     33.81326740	     -7.87213030	    -17.34274631	    -37.57213596	     -8.51962507	      7.65587480	     19.78135916	     10.11803587	      2.33747512	      7.85907607
      5.04000000	    -11.05929594	      0.21172903	     -6.68581019	      0.17840351	     -0.00489595	      0.03413213	      2.77220715	      4.92279460	      5.30522401	     -4.41132392	      0.84710916	      2.95075669	     10.85370490	     33.86183364	     -7.69145256	    -17.47693293	    -36.30898790	     -8.52403724	      8.04367235	     19.68489182	     10.05444314	      2.25122549	      7.99566971
      5.04500000	    -11.01241653	      0.28095251	     -6.83427002	      0.18287481	     -0.00534285	      0.03435421	      2.49626268	      4.82875105	      5.40885707	     -4.49320433	      1.05284515	      3.01515140	     11.08349008	     33.88548934	     -7.52069110	    -17.64288730	    -35.02069014	     -8.53053495	      8.47281852	     19.62615924	      9.99851441	      2.15825432	      8.16261809
      5.05000000	    -11.02490526	      0.34331512	     -6.93783759	      0.18733656	     -0.00585335	      0.03450758	      2.28809265	      4.74327021	      5.49059183	     -4.58304311	      1.25279806	      3.07014839	     11.24440046	     33.98142813	     -7.33872578	    -17.78292722	    -33.72582553	     -8.61935620	      8.94898438	     19.58203719	     10.00189397	      2.07068757	      8.24487777
      5.05500000	    -10.97730914	      0.41154616	     -7.10282320	      0.19180907	     -0.00631514	      0.03472564	      2.02212366	      4.64408592	      5.58684820	     -4.68312674	      1.47031674	      3.20422735	     11.46067365	     33.97138897	     -7.17361153	    -17.97858768	    -32.39040439	     -8.68350476	      9.47893040	     19.59677169	      9.94123577	      1.98400565	      8.43754579
      5.06000000	    -10.96323759	      0.47849658	     -7.22999924	      0.19628582	     -0.00681658	      0.03489023	      1.79398026	      4.54518939	      5.65223516	     -4.78565071	      1.68098264	      3.33218091	     11.66549912	     33.99787403	     -6.98970866	    -18.14883759	    -31.04144953	     -8.81466788	     10.03620519	     19.63120715	      9.91483868	      1.89256483	      8.57004562
      5.06500000	    -11.00364687	      0.54153134	     -7.32648805	      0.20077898	     -0.00738680	      0.03503120	      1.62339643	      4.45608835	      5.70481385	     -4.89043949	      1.89299281	      3.43918440	     11.81680623	     34.08499797	     -6.79870274	    -18.29791703	    -29.69073558	     -8.99652531	     10.61734020	     19.65095107	      9.95162980	      1.79802258	      8.63919543
      5.07000000	    -10.98465518	      0.60706968	     -7.48668203	      0.20524698	     -0.00789429	      0.03519204	      1.40518884	      4.35108901	      5.76008200	     -5.01741560	      2.11419468	      3.66127377	     12.03464138	     34.06824164	     -6.62430014	    -18.48528087	    -28.29526740	     -9.16705546	     11.23582004	     19.77180177	      9.91176373	      1.72104258	      8.82978973
      5.07500000	    -11.00777333	      0.67430664	     -7.60999149	      0.20974112	     -0.00845316	      0.03532126	      1.22833032	      4.24645768	      5.79696408	     -5.13848803	      2.32842840	      3.86096611	     12.23748041	     34.09731335	     -6.42950494	    -18.63535381	    -26.89472664	     -9.39435142	     11.84912840	     19.87940829	      9.92398250	      1.63188033	      8.95077714
      5.08000000	    -11.04634761	      0.74170766	     -7.73231252	      0.21424758	     -0.00903458	      0.03544586	      1.07164655	      4.14120118	      5.82778685	     -5.26671046	      2.54211465	      4.07603979	     12.43812026	     34.13151451	     -6.23116639	    -18.76804199	    -25.48369714	     -9.64492700	     12.45759056	     19.98756713	      9.95348101	      1.54284979	      9.06951367
      5.08500000	    -11.09237923	      0.81223478	     -7.85544410	      0.21876051	     -0.00962556	      0.03555894	      0.92637561	      4.03022965	      5.84870840	     -5.39894797	      2.75215197	      4.31177272	     12.64880492	     34.16148496	     -6.02535132	    -18.87604248	    -24.06084273	     -9.92339309	     13.04432986	     20.09690625	      9.99033421	      1.45214471	      9.18930258
      5.09000000	    -11.19356233	      0.88223351	     -7.93485988	      0.22331356	     -0.01028393	      0.03563246	      0.83066887	      3.92663218	      5.88357332	     -5.52033084	      2.94768678	      4.46149517	     12.79356509	     34.25611394	     -5.79736598	    -18.90953024	    -22.65367612	    -10.22375999	     13.58365982	     20.09230701	     10.09232263	      1.35567690	      9.23611737
      5.09500000	    -11.22290794	      0.96097879	     -8.10764435	      0.22782468	     -0.01085621	      0.03578329	      0.68604181	      3.79822791	      5.89217333	     -5.67886992	      3.16344645	      4.81618278	     13.05752857	     34.23045804	     -5.60119199	    -18.99566049	    -21.20741744	    -10.52653175	     14.10083734	     20.22236196	     10.10741203	      1.26844960	      9.42492691
      5.10000000	    -11.29156252	      1.04459629	     -8.22326901	      0.23239195	     -0.01147299	      0.03588531	      0.57044424	      3.66755491	      5.88562593	     -5.81625957	      3.34885572	      5.09376255	     13.33072652	     34.25154348	     -5.36788649	    -18.98788120	    -19.77162848	    -10.87560419	     14.50851785	     20.27580547	     10.17314780	      1.16218148	      9.53247182
